# xmcd CD database file
#
# Track frame offsets:
#	150
#	10931
#	25557
#	38121
#	58543
#	73113
#	84952
#	101305
#	111974
#	125095
#	140668
#	154346
#	169139
#	179697
#
# Disc length: 2582 seconds
#
# Revision: 0
# Processed by: cddbd v1.5.1PL0 Copyright (c) Steve Scherf et al.
# Submitted via: CDex 1.50
#
DISCID=bb0a140e
DTITLE=Maud and Friends - No. One
DYEAR=2004
DGENRE=Country
TTITLE0=Little To Late
TTITLE1=Why Haven't I Heard From You
TTITLE2=Folsom Prison Blues
TTITLE3=Mississippi
TTITLE4=Trail Of Tears
TTITLE5=That's What I Like About You
TTITLE6=Fragile Heart
TTITLE7=It's So Easy
TTITLE8=I Like It, I Love It
TTITLE9=Song For Joe
TTITLE10=I Feel Lucky
TTITLE11=A Gal Out On A Prowl
TTITLE12=Let's Have A Party
TTITLE13=Hey Baby Let's Go To Las Vegas
EXTD=YEAR: 2004
EXTT0=
EXTT1=
EXTT2=
EXTT3=
EXTT4=
EXTT5=
EXTT6=
EXTT7=
EXTT8=
EXTT9=
EXTT10=
EXTT11=
EXTT12=
EXTT13=
PLAYORDER=
